<?xml version="1.0" encoding="UTF-8" standalone="no"?>
<svg
   xmlns="http://www.w3.org/2000/svg"
   viewBox="0 0 136 24.778"
   version="1.1"
   width="136"
   height="24.778">
  <g
     id="g896"
     transform="matrix(0.57185267,0,0,0.57185267,-22.874104,-73.38901)"
     style="fill:#ffffff">
    <path
       d="m 61.664485,171.66451 c 5.80485,0 11.24688,-2.22865 15.34137,-6.32313 4.09448,-4.09449 6.32313,-9.53653 6.32313,-15.34137 0,-5.80484 -2.22865,-11.24688 -6.32313,-15.34136 -4.09449,-4.09449 -9.53652,-6.32313 -15.34137,-6.32313 -5.80484,0 -11.24687,2.22864 -15.34136,6.32313 -4.09449,4.09448 -6.32313,9.53652 -6.32313,15.34136 0,5.80484 2.22864,11.24688 6.32313,15.34137 4.09449,4.09448 9.53652,6.32313 15.34136,6.32313 z m 1.2439,-3.67986 c -0.41463,0.0518 -0.82926,0.0518 -1.2439,0.0518 -0.57011,0 -1.14023,-0.0518 -1.71035,-0.10366 -1.86584,-2.90242 -3.26522,-6.01215 -4.09449,-9.27738 h 9.17373 c 0.31097,0.77744 0.88109,1.50304 1.55486,1.9695 -0.88109,2.59145 -2.12498,5.02741 -3.67985,7.35971 z m 4.92375,-1.03658 c 0.98475,-1.81401 1.76218,-3.62802 2.38413,-5.54569 1.50304,-0.31098 2.6951,-1.34756 3.26522,-2.74694 h 3.99083 c -2.07316,3.78352 -5.5457,6.73777 -9.64018,8.29263 z m 11.81699,-16.94806 c 0,1.71036 -0.25914,3.36888 -0.67377,4.97558 h -5.59753 c -0.31097,-0.67378 -0.82926,-1.29572 -1.45121,-1.76218 0.10366,-1.14024 0.15549,-2.28048 0.15549,-3.42071 0,-1.6067 -0.10366,-3.2134 -0.31097,-4.76827 h 7.15239 c 0.51829,1.55487 0.7256,3.26523 0.7256,4.97558 z m -2.17681,-8.65543 h -6.32313 c -0.67378,-2.85059 -1.65853,-5.5457 -3.00608,-8.13714 3.939,1.50304 7.25605,4.45729 9.32921,8.13714 z m -9.01824,8.44812 c 0,0.88109 -0.0518,1.76218 -0.10365,2.64327 -1.45121,0.31097 -2.64328,1.2439 -3.2134,2.53962 h -10.00298 c -0.20732,-1.55487 -0.3628,-3.16157 -0.3628,-4.71643 0,-0.98475 0.0518,-1.9695 0.15548,-2.95425 1.34756,-0.25915 2.43596,-1.14024 3.10974,-2.28048 h 10.10664 c 0.20732,1.55487 0.31097,3.16157 0.31097,4.76827 z m -8.13714,-17.7255 c 0.46646,-0.0518 0.93292,-0.0518 1.34755,-0.0518 0.51829,0 1.03658,0 1.55487,0.0518 1.86584,2.90242 3.26523,6.01216 4.09449,9.27738 h -9.01824 c -0.31097,-0.88109 -0.88109,-1.65853 -1.60669,-2.22865 0.93292,-2.48778 2.12498,-4.82009 3.62802,-7.04873 z m -4.92375,1.03658 c -0.88109,1.65852 -1.65852,3.42071 -2.28047,5.18289 -1.6067,0.31098 -2.90242,1.50304 -3.42071,3.00608 h -3.78351 c 2.02133,-3.67985 5.39021,-6.6341 9.48469,-8.18897 z m -11.71334,16.89623 c 0,-1.71035 0.25915,-3.42071 0.72561,-4.97558 h 5.64935 c 0.31098,0.57012 0.77744,1.08841 1.29573,1.50304 -0.10366,1.2439 -0.20732,2.48779 -0.20732,3.73169 0,1.60669 0.10366,3.16156 0.31097,4.71643 h -7.04873 c -0.51829,-1.6067 -0.72561,-3.26522 -0.72561,-4.97558 z m 8.39629,8.6036 c 0.67378,2.79877 1.65853,5.5457 3.00608,8.13715 -3.939,-1.55487 -7.20422,-4.45729 -9.22555,-8.13715 z"
       id="path7-4"
       style="fill:#ffffff;fill-opacity:1;stroke-width:0.518289" />
    <path
       d="m 102.76949,158.107 v 0 q -4.795996,0 -8.029996,-3.234 v 0 0 q -3.234,-3.234 -3.234,-8.074 v 0 0 q 0,-4.752 3.234,-8.008 v 0 0 q 3.234,-3.234 8.029996,-3.234 v 0 0 q 4.818,0 8.272,3.014 v 0 l -2.992,3.278 v 0 q -2.31,-1.804 -5.28,-1.804 v 0 0 q -3.035996,0.022 -4.905996,1.914 v 0 0 q -1.848,1.87 -1.848,4.796 v 0 0 q 0,3.146 1.87,4.994 v 0 0 q 1.87,1.848 4.905996,1.848 v 0 0 q 2.442,0 3.74,-0.946 v 0 -3.872 l -2.992,0.022 v -4.224 h 7.502 v 10.538 0 q -3.432,2.992 -8.272,2.992 z m 16.346,-15.048 v 1.672 0 q 1.628,-1.65 3.938,-1.65 v 0 0 q 0.726,0 1.386,0.11 v 0 l -0.66,4.158 v 0 q -0.726,-0.66 -2.09,-0.704 v 0 0 q -1.54,0.11 -2.574,2.222 v 0 9.24 h -4.202 v -14.586 z m 14.894,15.202 v 0 q -3.278,0 -5.478,-2.2 v 0 0 q -2.178,-2.2 -2.178,-5.456 v 0 0 q 0,-3.278 2.178,-5.478 v 0 0 q 2.2,-2.2 5.478,-2.2 v 0 0 q 3.278,0 5.478,2.2 v 0 0 q 2.2,2.2 2.2,5.478 v 0 0 q 0,3.278 -2.2,5.456 v 0 0 q -2.2,2.2 -5.478,2.2 z m 0,-3.63 v 0 0 q 1.694,0 2.772,-1.166 v 0 0 q 1.078,-1.144 1.078,-2.86 v 0 0 q 0,-1.716 -1.078,-2.86 v 0 0 q -1.078,-1.166 -2.794,-1.166 v 0 0 q -1.694,0 -2.772,1.166 v 0 0 q -1.056,1.144 -1.056,2.86 v 0 0 q 0,1.716 1.056,2.86 v 0 0 q 1.078,1.166 2.794,1.166 z m 19.602,-1.848 v 0 -9.724 h 4.202 v 15.048 h -4.202 v -1.364 0 q -1.518,1.364 -3.608,1.364 v 0 0 q -2.86,0 -4.356,-1.738 v 0 0 q -1.518,-1.738 -1.518,-3.982 v 0 -9.328 h 4.224 v 8.272 0 q 0,1.496 0.748,2.332 v 0 0 q 0.748,0.836 2.266,0.88 v 0 0 q 1.32,-0.088 2.244,-1.76 z m 11.99,11.66 -4.202,-0.022 v -20.9 l 4.202,-0.462 v 1.21 0 q 1.694,-1.21 3.322,-1.21 v 0 0 q 3.454,0 5.478,2.266 v 0 0 q 2.046,2.244 2.046,5.258 v 0 0 q 0,3.014 -2.046,5.258 v 0 0 q -2.024,2.266 -5.478,2.266 v 0 0 q -2.266,-0.154 -3.322,-1.232 v 0 z m 0,-15.224 v 0 2.442 0 q 0.308,2.53 3.168,2.97 v 0 0 q 3.608,-0.286 4.07,-3.74 v 0 0 q -0.154,-4.224 -4.07,-4.378 v 0 0 q -2.86,0.462 -3.168,2.706 z m 20.636,9.042 v 0 q -3.278,0 -5.456,-2.2 v 0 0 q -2.2,-2.2 -2.2,-5.456 v 0 0 q 0,-3.278 2.2,-5.478 v 0 0 q 2.178,-2.2 5.456,-2.2 v 0 0 q 3.278,0 5.478,2.2 v 0 0 q 2.2,2.2 2.2,5.478 v 0 0 q 0,3.278 -2.2,5.456 v 0 0 q -2.2,2.2 -5.478,2.2 z m 0,-3.63 v 0 0 q 1.716,0 2.772,-1.166 v 0 0 q 1.078,-1.144 1.078,-2.86 v 0 0 q 0,-1.716 -1.078,-2.86 v 0 0 q -1.056,-1.166 -2.794,-1.166 v 0 0 q -1.694,0 -2.772,1.166 v 0 0 q -1.056,1.144 -1.056,2.86 v 0 0 q 0,1.716 1.056,2.86 v 0 0 q 1.078,1.166 2.794,1.166 z m 14.696,-6.138 v 0 9.614 h -4.224 v -14.586 l 4.224,-0.462 v 1.342 0 q 1.408,-1.32 3.608,-1.32 v 0 0 q 2.838,0 4.356,1.716 v 0 0 q 1.65,-1.716 4.95,-1.716 v 0 0 q 2.86,0 4.378,1.716 v 0 0 q 1.496,1.738 1.496,4.004 v 0 9.306 h -4.202 v -8.272 0 q 0,-1.496 -0.682,-2.332 v 0 0 q -0.682,-0.814 -2.2,-0.858 v 0 0 q -1.254,0.088 -2.156,1.65 v 0 0 q -0.088,0.462 -0.088,0.946 v 0 8.866 h -4.202 v -8.272 0 q 0,-1.496 -0.682,-2.332 v 0 0 q -0.682,-0.814 -2.2,-0.858 v 0 0 q -1.386,0.088 -2.376,1.848 z m 24.442,-1.056 -1.65,-2.552 v 0 q 2.86,-1.804 6.622,-1.804 v 0 0 q 2.706,0 4.268,1.496 v 0 0 q 1.584,1.518 1.584,4.51 v 0 9.02 h -4.202 v -1.188 0 q -1.848,1.188 -3.322,1.188 v 0 0 q -2.992,0 -4.51,-1.276 v 0 0 q -1.496,-1.276 -1.496,-3.52 v 0 0 q 0,-2.112 1.43,-3.762 v 0 0 q 1.408,-1.65 4.576,-1.65 v 0 0 q 1.474,0 3.322,0.902 v 0 -0.462 0 q -0.044,-1.65 -2.42,-1.804 v 0 0 q -2.706,0 -4.202,0.902 z m 6.622,6.16 v 0 -1.694 0 q -0.594,-1.166 -2.86,-1.166 v 0 0 q -2.706,0.308 -2.86,2.112 v 0 0 q 0.154,1.782 2.86,1.936 v 0 0 q 2.266,0 2.86,-1.188 z m 12.188,-5.038 v 0 9.548 h -4.224 v -14.586 l 4.224,-0.462 v 1.364 0 q 1.518,-1.342 3.608,-1.342 v 0 0 q 2.86,0 4.356,1.716 v 0 0 q 1.496,1.738 1.496,4.004 v 0 9.306 h -4.202 v -8.272 0 q 0,-1.496 -0.748,-2.332 v 0 0 q -0.77,-0.814 -2.288,-0.858 v 0 0 q -1.298,0.088 -2.222,1.914 z m 17.204,9.548 h -4.202 v -15.048 h 4.202 z m -4.356,-18.634 v 0 0 q 0,0.902 0.594,1.496 v 0 0 q 0.616,0.594 1.672,0.594 v 0 0 q 1.034,0 1.65,-0.594 v 0 0 q 0.594,-0.594 0.594,-1.496 v 0 0 q 0,-0.902 -0.594,-1.518 v 0 0 q -0.616,-0.616 -1.694,-0.616 v 0 0 q -1.012,0 -1.628,0.616 v 0 0 q -0.594,0.616 -0.594,1.518 z m 9.966,7.964 -1.65,-2.552 v 0 q 2.86,-1.804 6.622,-1.804 v 0 0 q 2.706,0 4.29,1.496 v 0 0 q 1.562,1.518 1.562,4.51 v 0 9.02 h -4.202 v -1.188 0 q -1.826,1.188 -3.3,1.188 v 0 0 q -3.014,0 -4.51,-1.276 v 0 0 q -1.518,-1.276 -1.518,-3.52 v 0 0 q 0,-2.112 1.43,-3.762 v 0 0 q 1.408,-1.65 4.598,-1.65 v 0 0 q 1.452,0 3.3,0.902 v 0 -0.462 0 q -0.022,-1.65 -2.398,-1.804 v 0 0 q -2.706,0 -4.224,0.902 z m 6.622,6.16 v 0 -1.694 0 q -0.594,-1.166 -2.86,-1.166 v 0 0 q -2.706,0.308 -2.86,2.112 v 0 0 q 0.154,1.782 2.86,1.936 v 0 0 q 2.266,0 2.86,-1.188 z"
       id="path868-9"
       style="fill:#ffffff;fill-opacity:1;stroke-width:2.2" />
  </g>
</svg>
